<svg width="800" height="800" viewBox="0 0 800 800" xmlns="http://www.w3.org/2000/svg">
  <g stroke="#00FFD1" stroke-width="1" fill="none" opacity="0.45">
    <circle cx="400" cy="400" r="350" />
    <ellipse cx="400" cy="400" rx="350" ry="120" />
    <ellipse cx="400" cy="400" rx="120" ry="350" />
    <ellipse cx="400" cy="400" rx="290" ry="150" />
    <ellipse cx="400" cy="400" rx="150" ry="290" />

    <path d="M50 400 C200 350 600 450 750 400" />
    <path d="M50 380 C200 330 600 430 750 380" />
    <path d="M50 420 C200 470 600 370 750 420" />

    <path d="M400 50 C350 200 450 600 400 750" />
    <path d="M380 50 C330 200 430 600 380 750" />
    <path d="M420 50 C470 200 370 600 420 750" />
  </g>
</svg>
